# xmcd
#
# Track frame offsets:
#	150
#	10758
#	27226
#	39303
#	55594
#	69779
#	87714
#	99205
#	110052
#	123706
#	136038
#	147177
#	164031
#	179799
#	192109
#
# Disc length: 2764 seconds
#
# Revision: 1
# Processed by: cddbd v1.5.1PL2 Copyright (c) Steve Scherf et al.
# Submitted via: audiograbber 1.83.01
#
DISCID=cc0aca0f
DTITLE=Captain Cook - Der weisse Mond von Maratonga
DYEAR=2003
DGENRE=Instrumental
TTITLE0=Strangers in the night
TTITLE1=O mia bella Napoli
TTITLE2=Just walking in the rain
TTITLE3=Aber dich gibt's nur einmal für mich
TTITLE4=Bleib bei mir
TTITLE5=Billy Vaughn Medley
TTITLE6=Mamatschi
TTITLE7=Zuschau'n kann i net
TTITLE8=Der weisse Mond von Maratonga
TTITLE9=Last rose of summer
TTITLE10=Aloa Oe
TTITLE11=Wo ich geh' und steh'
TTITLE12=Ganz in weiß
TTITLE13=Ich denk so gern an Billy Vaughn
TTITLE14=Conny Francis Medley
EXTD=
EXTT0=
EXTT1=
EXTT2=
EXTT3=
EXTT4=
EXTT5=Sail along silvery moon-Morgen-La Paloma
EXTT6=
EXTT7=
EXTT8=
EXTT9=
EXTT10=
EXTT11=
EXTT12=
EXTT13=
EXTT14=Paradiso-Barcarole in der Nacht-Die Liebe ist ein seltsames Spiel-
PLAYORDER=
